<svg xmlns="http://www.w3.org/2000/svg" viewBox="0 0 256 256" role="img" aria-label="Carnet plomberie">
	<defs>
		<linearGradient id="cover" x1="0%" x2="100%" y1="0%" y2="100%">
			<stop offset="0%" stop-color="#0ea5e9" />
			<stop offset="100%" stop-color="#2563eb" />
		</linearGradient>
		<linearGradient id="shadow" x1="0%" x2="0%" y1="0%" y2="100%">
			<stop offset="0%" stop-color="#0b1224" stop-opacity="0.35" />
			<stop offset="100%" stop-color="#0b1224" stop-opacity="0.6" />
		</linearGradient>
	</defs>
	<rect x="40" y="32" width="152" height="192" rx="16" fill="url(#cover)" />
	<rect x="152" y="32" width="36" height="192" rx="12" fill="#0b1224" opacity="0.25" />
	<path d="M60 56h116" stroke="white" stroke-width="8" stroke-linecap="round" opacity="0.55" />
	<path d="M60 80h116" stroke="white" stroke-width="6" stroke-linecap="round" opacity="0.55" />
	<path d="M60 112h88" stroke="#e0f2fe" stroke-width="10" stroke-linecap="round" />
	<path d="M60 140h72" stroke="#e0f2fe" stroke-width="8" stroke-linecap="round" />
	<path d="M60 168h96" stroke="#e0f2fe" stroke-width="6" stroke-linecap="round" />
	<path d="M60 196h56" stroke="#e0f2fe" stroke-width="6" stroke-linecap="round" />
	<rect x="44" y="32" width="12" height="192" rx="6" fill="url(#shadow)" />
	<circle cx="192" cy="60" r="10" fill="#fbbf24" />
	<circle cx="192" cy="92" r="10" fill="#10b981" />
	<circle cx="192" cy="124" r="10" fill="#f97316" />
	<circle cx="192" cy="156" r="10" fill="#8b5cf6" />
	<path d="M92 120c6-10 16-18 28-22 12-4 24-2 34 2" fill="none" stroke="#f1f5f9" stroke-width="6" stroke-linecap="round" />
	<circle cx="88" cy="124" r="8" fill="#f1f5f9" />
</svg>